<?xml version="1.0" encoding="UTF-8"?><svg id="Camada_1" xmlns="http://www.w3.org/2000/svg" viewBox="0 0 300 300"><defs><style>.cls-1{fill:#0d9488;}.cls-1,.cls-2{stroke-width:0px;}.cls-2{fill:#fff;}</style></defs><circle class="cls-1" cx="150" cy="150" r="140.5"/><path class="cls-2" d="m248.12,135.56l-13.33-13.33c-4.67-4.67-12.06-5.21-17.37-1.28l-41.37-41.37c3.94-5.3,3.4-12.69-1.27-17.37l-13.33-13.33c-5.21-5.21-13.65-5.21-18.86,0,0,0,0,0,0,0l-53.33,53.33c-5.21,5.21-5.21,13.65,0,18.86,0,0,0,0,0,0l13.33,13.33c4.67,4.66,12.06,5.2,17.36,1.27l5.98,5.98-54.48,54.48c-7.76,8.49-7.17,21.67,1.32,29.43,7.96,7.28,20.16,7.28,28.12,0l54.48-54.48,5.98,5.97c-3.94,5.3-3.4,12.69,1.27,17.37l13.33,13.33c5.21,5.21,13.65,5.21,18.86,0h0s53.33-53.34,53.33-53.34c5.21-5.21,5.21-13.65,0-18.86,0,0,0,0,0,0Zm-136.1-10.58l-13.33-13.33,53.33-53.33,13.33,13.33-53.33,53.33Zm-20.57,91.15c-2.93,2.91-7.65,2.91-10.58,0-2.9-2.92-2.9-7.64,0-10.57l54.48-54.48,10.58,10.57-54.48,54.48Zm38.07-89.77l37.22-37.22,41.12,41.12-37.21,37.22-41.13-41.12Zm55.83,71.95l-13.33-13.33,3.33-3.33h0l46.67-46.67h0l3.33-3.33,13.33,13.33-53.33,53.33Z"/></svg>