<?xml version="1.0" encoding="UTF-8"?><svg id="Camada_1" xmlns="http://www.w3.org/2000/svg" viewBox="0 0 1081.99 186.05"><defs><style>.cls-1{fill:#0d9488;}.cls-1,.cls-2{stroke-width:0px;}.cls-2{fill:#115e59;}</style></defs><path class="cls-2" d="m40.72,103.66h-.31c-.78-2.04-1.93-3.91-3.45-5.62-1.51-1.71-3.39-3.08-5.64-4.11-2.25-1.03-4.85-1.55-7.83-1.55-3.97,0-7.75,1.06-11.34,3.17-3.59,2.11-6.51,5.44-8.77,9.99-2.26,4.54-3.39,10.44-3.39,17.7s1.08,12.7,3.23,17.27c2.15,4.57,5.03,7.97,8.62,10.22,3.59,2.25,7.52,3.37,11.81,3.37,2.82,0,5.33-.46,7.54-1.39,2.21-.93,4.09-2.19,5.64-3.8,1.55-1.61,2.75-3.43,3.58-5.46h.47v9.87h21.46v-80.2h-21.62v30.54Zm-.68,27.16c-.77,2.13-1.87,3.77-3.29,4.93-1.42,1.16-3.13,1.74-5.11,1.74s-3.67-.57-5.07-1.7c-1.4-1.14-2.47-2.77-3.21-4.9-.74-2.13-1.12-4.68-1.12-7.65s.37-5.53,1.12-7.66,1.81-3.76,3.21-4.9c1.4-1.14,3.09-1.7,5.07-1.7s3.69.57,5.11,1.7c1.42,1.14,2.52,2.77,3.29,4.9.77,2.13,1.15,4.68,1.15,7.66s-.39,5.45-1.15,7.58Z"/><path class="cls-2" d="m123.11,100.63c-2.61-2.68-5.76-4.72-9.44-6.13-3.68-1.41-7.79-2.11-12.33-2.11-6.21,0-11.6,1.29-16.17,3.88-4.57,2.58-8.11,6.2-10.61,10.85-2.51,4.65-3.76,10.08-3.76,16.29s1.25,12.03,3.74,16.66c2.49,4.63,6.06,8.18,10.69,10.65,4.63,2.47,10.16,3.7,16.58,3.7,5.56,0,10.42-.84,14.59-2.52,4.16-1.68,7.51-4.06,10.04-7.13,2.53-3.07,4.14-6.69,4.82-10.87h-19.74c-.42,1.12-1.07,2.08-1.96,2.88-.89.8-1.95,1.4-3.19,1.82-1.24.42-2.6.63-4.09.63-2.14,0-3.97-.43-5.48-1.29-1.51-.86-2.68-2.05-3.49-3.56-.81-1.51-1.21-3.24-1.21-5.17v-.94h39.16v-5.01c0-4.78-.7-9.07-2.11-12.88s-3.42-7.06-6.03-9.73Zm-31.01,15.72c.05-1.75.52-3.28,1.39-4.58.87-1.31,2.04-2.33,3.5-3.08,1.46-.74,3.07-1.12,4.82-1.12s3.41.37,4.84,1.12c1.42.74,2.56,1.78,3.41,3.09.85,1.32,1.29,2.84,1.31,4.56h-19.27Z"/><path class="cls-2" d="m164.38,110.15c1.41-1.08,3.05-1.62,4.93-1.62,2.4,0,4.37.83,5.89,2.49,1.53,1.66,2.43,4.07,2.72,7.22h20.05c-.03-5.22-1.23-9.77-3.6-13.65-2.38-3.87-5.72-6.88-10.04-9.01-4.32-2.13-9.43-3.19-15.33-3.19-6.53,0-12.11,1.3-16.76,3.9-4.65,2.6-8.21,6.23-10.69,10.88-2.48,4.66-3.72,10.07-3.72,16.23s1.24,11.57,3.72,16.23c2.48,4.66,6.04,8.29,10.69,10.89,4.65,2.6,10.23,3.9,16.76,3.9,5.95,0,11.08-1.07,15.37-3.21,4.29-2.14,7.62-5.18,9.97-9.1,2.35-3.93,3.56-8.54,3.64-13.84h-20.05c-.16,2.09-.62,3.86-1.39,5.31-.77,1.45-1.77,2.55-3,3.29-1.23.74-2.64,1.12-4.23,1.12-1.88,0-3.52-.54-4.93-1.63-1.41-1.08-2.51-2.71-3.29-4.9-.78-2.18-1.17-4.91-1.17-8.2s.39-6.02,1.17-8.2c.78-2.18,1.88-3.81,3.29-4.9Z"/><path class="cls-2" d="m217.75,86.91c2.92,0,5.42-.97,7.5-2.9,2.08-1.93,3.11-4.26,3.11-6.97s-1.04-5.04-3.11-6.97c-2.08-1.93-4.59-2.9-7.54-2.9s-5.43.97-7.52,2.9c-2.09,1.93-3.13,4.26-3.13,6.97s1.04,5.04,3.13,6.97c2.09,1.93,4.61,2.9,7.56,2.9Z"/><rect class="cls-2" x="206.91" y="93.17" width="21.62" height="60.15"/><path class="cls-2" d="m291.47,122.79c-3.01-2.65-7.6-4.54-13.76-5.66l-12.22-2.19c-2.3-.42-3.84-1.01-4.64-1.76-.8-.76-1.18-1.58-1.16-2.47-.03-1.25.63-2.22,1.96-2.9,1.33-.68,2.92-1.02,4.78-1.02,1.44,0,2.75.24,3.94.72,1.19.48,2.16,1.17,2.92,2.06.76.89,1.19,1.94,1.29,3.17h19.89c-.26-6.37-2.9-11.36-7.93-14.96-5.03-3.6-11.88-5.4-20.58-5.4-5.72,0-10.66.76-14.82,2.29-4.16,1.53-7.36,3.75-9.59,6.66-2.23,2.91-3.33,6.45-3.31,10.63-.03,4.72,1.49,8.59,4.54,11.59,3.05,3,7.65,5.04,13.78,6.11l10.65,1.88c2.35.42,4.08.97,5.19,1.64,1.11.68,1.68,1.59,1.7,2.74-.03,1.25-.69,2.22-1.98,2.9-1.29.68-2.93,1.02-4.91,1.02-2.45,0-4.48-.52-6.09-1.55-1.61-1.03-2.55-2.5-2.84-4.4h-21.46c.6,6.16,3.49,11.12,8.67,14.88,5.18,3.76,12.37,5.64,21.56,5.64,5.56,0,10.51-.86,14.86-2.56,4.35-1.71,7.78-4.14,10.3-7.28,2.52-3.15,3.79-6.86,3.82-11.14-.03-4.44-1.55-7.98-4.56-10.63Z"/><path class="cls-2" d="m351.75,98.09c-2.4-1.79-5.31-3.18-8.73-4.19-3.42-1.01-7.28-1.51-11.59-1.51-5.98,0-10.96.93-14.96,2.8-3.99,1.87-7.03,4.35-9.1,7.44-2.08,3.09-3.24,6.47-3.5,10.12h19.89c.26-1.86,1.04-3.23,2.33-4.13,1.29-.9,2.97-1.35,5.03-1.35,1.88,0,3.42.42,4.62,1.25,1.2.83,1.8,2.04,1.8,3.6v.16c0,1.15-.46,2.07-1.37,2.76-.91.69-2.4,1.23-4.44,1.61-2.05.38-4.76.7-8.12.96-3.11.23-6,.74-8.67,1.53-2.68.78-5.02,1.92-7.03,3.41-2.01,1.49-3.58,3.4-4.7,5.74-1.12,2.34-1.68,5.15-1.68,8.44,0,3.99.83,7.28,2.51,9.87,1.67,2.58,3.97,4.51,6.91,5.78,2.94,1.27,6.32,1.9,10.16,1.9,2.61,0,5.01-.31,7.19-.94,2.18-.63,4.12-1.63,5.83-3.02,1.71-1.38,3.16-3.2,4.37-5.44h.47v8.46h20.21v-41.19c0-2.79-.63-5.39-1.9-7.77-1.27-2.39-3.1-4.48-5.5-6.26Zm-14.06,33.93c0,1.83-.46,3.38-1.37,4.66-.91,1.28-2.1,2.26-3.54,2.94-1.45.68-2.99,1.02-4.64,1.02-1.83,0-3.33-.45-4.5-1.33-1.17-.89-1.76-2.17-1.76-3.84,0-1.04.25-1.99.76-2.84.51-.85,1.29-1.57,2.35-2.15,1.06-.59,2.42-1.01,4.09-1.27.86-.13,1.69-.27,2.49-.43.8-.16,1.55-.33,2.27-.51.72-.18,1.4-.38,2.04-.59.64-.21,1.25-.43,1.82-.67v5.01Z"/><path class="cls-2" d="m322.5,81.21c.73-1,1.72-1.51,2.98-1.51.99,0,1.93.33,2.82.98.89.65,1.85,1.4,2.88,2.25,1.03.85,2.26,1.6,3.68,2.25,1.42.65,3.15.96,5.19.94,3.65-.05,6.77-1.5,9.34-4.35,2.57-2.84,3.9-7.03,3.97-12.57h-10.5c-.03,1.91-.36,3.39-1,4.46-.64,1.07-1.72,1.62-3.23,1.64-.94,0-1.85-.32-2.72-.96-.87-.64-1.85-1.39-2.92-2.25s-2.32-1.61-3.74-2.25c-1.42-.64-3.15-.96-5.19-.96-3.71.03-6.85,1.42-9.44,4.17s-3.88,6.95-3.88,12.59h10.65c0-1.96.37-3.44,1.1-4.45Z"/><path class="cls-2" d="m425.92,107.17c-2.48-4.66-6.04-8.29-10.69-10.88-4.65-2.6-10.23-3.9-16.76-3.9s-12.11,1.3-16.76,3.9c-4.65,2.6-8.21,6.23-10.69,10.88-2.48,4.66-3.72,10.07-3.72,16.23s1.24,11.57,3.72,16.23c2.48,4.66,6.04,8.29,10.69,10.89,4.65,2.6,10.23,3.9,16.76,3.9s12.11-1.3,16.76-3.9c4.65-2.6,8.21-6.23,10.69-10.89,2.48-4.66,3.72-10.07,3.72-16.23s-1.24-11.57-3.72-16.23Zm-19.46,24.18c-.73,2.27-1.76,4.02-3.09,5.25-1.33,1.23-2.91,1.84-4.74,1.84-1.93,0-3.59-.61-4.97-1.84-1.38-1.23-2.44-2.98-3.17-5.25-.73-2.27-1.1-4.97-1.1-8.11s.36-5.87,1.1-8.12c.73-2.26,1.79-4,3.17-5.23,1.38-1.23,3.04-1.84,4.97-1.84,1.83,0,3.41.61,4.74,1.84s2.36,2.97,3.09,5.23c.73,2.26,1.1,4.97,1.1,8.12s-.37,5.83-1.1,8.11Z"/><path class="cls-2" d="m705.28,122.79c-3.01-2.65-7.6-4.54-13.76-5.66l-12.22-2.19c-2.3-.42-3.84-1.01-4.64-1.76-.8-.76-1.18-1.58-1.16-2.47-.03-1.25.63-2.22,1.96-2.9s2.92-1.02,4.78-1.02c1.44,0,2.75.24,3.94.72,1.19.48,2.16,1.17,2.92,2.06.76.89,1.19,1.94,1.29,3.17h19.89c-.26-6.37-2.9-11.36-7.93-14.96-5.03-3.6-11.88-5.4-20.58-5.4-5.72,0-10.66.76-14.82,2.29-4.16,1.53-7.36,3.75-9.59,6.66-2.23,2.91-3.33,6.45-3.31,10.63-.03,4.72,1.49,8.59,4.54,11.59,3.05,3,7.65,5.04,13.78,6.11l10.65,1.88c2.35.42,4.08.97,5.19,1.64,1.11.68,1.68,1.59,1.7,2.74-.03,1.25-.69,2.22-1.98,2.9-1.29.68-2.93,1.02-4.91,1.02-2.45,0-4.48-.52-6.09-1.55-1.61-1.03-2.55-2.5-2.84-4.4h-21.46c.6,6.16,3.49,11.12,8.67,14.88,5.18,3.76,12.37,5.64,21.56,5.64,5.56,0,10.51-.86,14.86-2.56,4.35-1.71,7.78-4.14,10.3-7.28,2.52-3.15,3.79-6.86,3.82-11.14-.02-4.44-1.55-7.98-4.56-10.63Z"/><path class="cls-2" d="m728.99,86.91c2.92,0,5.42-.97,7.5-2.9,2.08-1.93,3.11-4.26,3.11-6.97s-1.04-5.04-3.11-6.97c-2.08-1.93-4.59-2.9-7.54-2.9s-5.43.97-7.52,2.9c-2.09,1.93-3.13,4.26-3.13,6.97s1.04,5.04,3.13,6.97c2.09,1.93,4.61,2.9,7.56,2.9Z"/><rect class="cls-2" x="718.14" y="93.17" width="21.62" height="60.15"/><path class="cls-2" d="m824.34,92.39c-4.46,0-8.36,1.12-11.67,3.35-3.32,2.23-5.48,5.19-6.5,8.87h-.63c-.63-3.68-2.47-6.64-5.52-8.87-3.05-2.23-6.7-3.35-10.93-3.35s-7.78,1.1-10.81,3.29c-3.03,2.19-5.17,5.17-6.42,8.93h-.63v-11.44h-20.52v60.15h21.62v-35.09c0-1.75.29-3.25.88-4.52.59-1.27,1.42-2.24,2.49-2.92,1.07-.68,2.35-1.02,3.84-1.02,2.25,0,4.03.75,5.37,2.25,1.33,1.5,2,3.57,2,6.21v35.09h20.68v-35.09c0-2.64.65-4.7,1.94-6.21,1.29-1.5,3.05-2.25,5.27-2.25s4.03.75,5.37,2.25c1.33,1.5,2,3.57,2,6.21v35.09h21.62v-40.57c0-6.16-1.8-11.1-5.38-14.8-3.59-3.71-8.27-5.56-14.04-5.56Z"/><path class="cls-2" d="m904.59,95.56c-3.59-2.11-7.37-3.17-11.34-3.17-2.97,0-5.59.52-7.83,1.55-2.25,1.03-4.13,2.4-5.64,4.11-1.51,1.71-2.66,3.58-3.45,5.62h-.47v-10.5h-21.46v82.7h21.62v-32.42h.31c.83,2.04,2.03,3.86,3.58,5.46,1.55,1.61,3.43,2.87,5.64,3.8,2.21.93,4.72,1.39,7.54,1.39,4.28,0,8.22-1.12,11.81-3.37,3.59-2.24,6.46-5.65,8.61-10.22,2.15-4.57,3.23-10.33,3.23-17.27s-1.13-13.16-3.39-17.7c-2.26-4.54-5.18-7.87-8.77-9.99Zm-11.2,35.34c-.74,2.13-1.81,3.76-3.21,4.9-1.4,1.14-3.09,1.7-5.07,1.7s-3.69-.58-5.11-1.74c-1.42-1.16-2.52-2.81-3.29-4.93-.77-2.13-1.16-4.65-1.16-7.58s.39-5.53,1.16-7.66c.77-2.13,1.87-3.76,3.29-4.9,1.42-1.14,3.12-1.7,5.11-1.7s3.67.57,5.07,1.7c1.4,1.14,2.47,2.77,3.21,4.9.74,2.13,1.12,4.68,1.12,7.66s-.37,5.53-1.12,7.65Z"/><rect class="cls-2" x="925.83" y="73.12" width="21.62" height="80.2"/><path class="cls-2" d="m1008.53,100.63c-2.61-2.68-5.76-4.72-9.44-6.13-3.68-1.41-7.79-2.11-12.34-2.11-6.21,0-11.6,1.29-16.17,3.88-4.57,2.58-8.11,6.2-10.61,10.85-2.5,4.65-3.76,10.08-3.76,16.29s1.25,12.03,3.74,16.66c2.49,4.63,6.06,8.18,10.69,10.65,4.63,2.47,10.16,3.7,16.58,3.7,5.56,0,10.42-.84,14.59-2.52,4.16-1.68,7.51-4.06,10.04-7.13,2.53-3.07,4.14-6.69,4.82-10.87h-19.74c-.42,1.12-1.07,2.08-1.96,2.88-.89.8-1.95,1.4-3.19,1.82-1.24.42-2.61.63-4.09.63-2.14,0-3.97-.43-5.48-1.29-1.51-.86-2.68-2.05-3.49-3.56-.81-1.51-1.21-3.24-1.21-5.17v-.94h39.16v-5.01c0-4.78-.71-9.07-2.11-12.88-1.41-3.81-3.42-7.06-6.03-9.73Zm-31.01,15.72c.05-1.75.52-3.28,1.39-4.58.87-1.31,2.04-2.33,3.51-3.08,1.46-.74,3.07-1.12,4.81-1.12s3.41.37,4.84,1.12c1.42.74,2.56,1.78,3.41,3.09.85,1.32,1.28,2.84,1.31,4.56h-19.27Z"/><path class="cls-2" d="m1077.43,122.79c-3.02-2.65-7.6-4.54-13.76-5.66l-12.22-2.19c-2.3-.42-3.84-1.01-4.64-1.76-.8-.76-1.18-1.58-1.15-2.47-.03-1.25.63-2.22,1.96-2.9,1.33-.68,2.92-1.02,4.78-1.02,1.44,0,2.75.24,3.94.72,1.19.48,2.16,1.17,2.92,2.06.76.89,1.19,1.94,1.29,3.17h19.89c-.26-6.37-2.9-11.36-7.93-14.96-5.02-3.6-11.88-5.4-20.58-5.4-5.72,0-10.66.76-14.82,2.29-4.17,1.53-7.36,3.75-9.59,6.66-2.23,2.91-3.33,6.45-3.31,10.63-.03,4.72,1.49,8.59,4.54,11.59,3.05,3,7.65,5.04,13.78,6.11l10.65,1.88c2.35.42,4.08.97,5.19,1.64,1.11.68,1.68,1.59,1.7,2.74-.03,1.25-.68,2.22-1.98,2.9-1.29.68-2.93,1.02-4.92,1.02-2.45,0-4.48-.52-6.09-1.55-1.61-1.03-2.55-2.5-2.84-4.4h-21.46c.6,6.16,3.49,11.12,8.67,14.88,5.18,3.76,12.37,5.64,21.56,5.64,5.56,0,10.52-.86,14.86-2.56,4.35-1.71,7.78-4.14,10.3-7.28,2.52-3.15,3.79-6.86,3.82-11.14-.02-4.44-1.55-7.98-4.56-10.63Z"/><path class="cls-1" d="m631.02,90.58l-13.33-13.33c-4.67-4.67-12.06-5.21-17.37-1.28l-41.37-41.37c3.94-5.3,3.4-12.69-1.27-17.37l-13.33-13.33c-5.21-5.21-13.65-5.21-18.86,0,0,0,0,0,0,0l-53.33,53.33c-5.21,5.21-5.21,13.65,0,18.86,0,0,0,0,0,0l13.33,13.33c4.67,4.66,12.06,5.2,17.36,1.27l5.98,5.98-54.48,54.48c-7.76,8.49-7.17,21.67,1.32,29.43,7.96,7.28,20.16,7.28,28.12,0l54.48-54.48,5.98,5.97c-3.94,5.3-3.4,12.69,1.27,17.37l13.33,13.33c5.21,5.21,13.65,5.21,18.86,0h0s53.33-53.34,53.33-53.34c5.21-5.21,5.21-13.65,0-18.86,0,0,0,0,0,0Zm-136.1-10.58l-13.33-13.33,53.33-53.33,13.33,13.33-53.33,53.33Zm-20.57,91.15c-2.93,2.91-7.65,2.91-10.58,0-2.9-2.92-2.9-7.64,0-10.57l54.48-54.48,10.58,10.57-54.48,54.48Zm38.07-89.77l37.22-37.22,41.12,41.12-37.21,37.22-41.13-41.12Zm55.83,71.95l-13.33-13.33,3.33-3.33h0l46.67-46.67h0l3.33-3.33,13.33,13.33-53.33,53.33Z"/></svg>